<?xml version="1.0" standalone="no"?>
<!DOCTYPE svg PUBLIC "-//W3C//DTD SVG 20010904//EN"
 "http://www.w3.org/TR/2001/REC-SVG-20010904/DTD/svg10.dtd">
<svg version="1.0" xmlns="http://www.w3.org/2000/svg"
 width="100.000000pt" height="81.000000pt" viewBox="0 0 100.000000 81.000000"
 preserveAspectRatio="xMidYMid meet">

<g transform="translate(0.000000,81.000000) scale(0.100000,-0.100000)"
fill="#000000" stroke="none">
<path d="M6 803 c-4 -5 19 -33 52 -63 l59 -55 47 -161 c25 -89 46 -166 46
-171 0 -5 -22 -40 -50 -78 -27 -38 -50 -75 -50 -82 0 -10 78 -13 376 -13 296
0 375 3 372 13 -4 9 -86 13 -357 15 l-352 2 43 60 42 60 251 0 c227 0 253 2
267 18 27 31 228 325 228 334 0 4 -7 8 -15 8 -8 0 -15 -4 -15 -10 0 -6 -140
-10 -399 -10 l-399 0 -9 24 c-4 13 -34 45 -65 70 -61 50 -61 50 -72 39z m194
-198 c0 -55 -13 -58 -28 -6 -16 50 -15 51 8 51 17 0 20 -7 20 -45z m110 0 l0
-45 -50 0 -50 0 0 45 0 45 50 0 50 0 0 -45z m130 0 l0 -45 -55 0 -55 0 0 45 0
45 55 0 55 0 0 -45z m120 0 l0 -45 -55 0 -55 0 0 45 0 45 55 0 55 0 0 -45z
m140 0 l0 -45 -60 0 -60 0 0 45 0 45 60 0 60 0 0 -45z m130 0 l0 -45 -60 0
-60 0 0 45 0 45 60 0 60 0 0 -45z m90 40 c0 -11 -53 -85 -61 -85 -5 0 -9 20
-9 45 0 45 0 45 35 45 19 0 35 -2 35 -5z m-610 -140 l0 -35 -50 0 -50 0 0 35
0 35 50 0 50 0 0 -35z m130 0 l0 -35 -55 0 -55 0 0 35 0 35 55 0 55 0 0 -35z
m120 0 l0 -35 -55 0 -55 0 0 35 0 35 55 0 55 0 0 -35z m140 0 l0 -35 -60 0
-60 0 0 35 0 35 60 0 60 0 0 -35z m130 18 c-1 -36 -25 -53 -74 -53 -46 0 -46
0 -46 35 l0 35 60 0 c51 0 60 -3 60 -17z m-520 -118 c0 -45 0 -45 -34 -45 -29
0 -36 4 -45 31 -18 53 -15 59 34 59 l45 0 0 -45z m130 0 l0 -45 -55 0 -55 0 0
45 0 45 55 0 55 0 0 -45z m120 -1 l0 -45 -52 3 c-50 3 -53 5 -56 31 -6 49 3
57 58 57 l50 0 0 -46z m140 1 l0 -45 -60 0 -60 0 0 45 0 45 60 0 60 0 0 -45z
m60 0 c-17 -25 -35 -45 -40 -45 -6 0 -10 20 -10 45 l0 45 40 0 41 0 -31 -45z"/>
<path d="M180 130 c-25 -25 -26 -62 0 -85 57 -52 137 18 89 78 -25 32 -61 35
-89 7z"/>
<path d="M650 130 c-25 -25 -26 -62 0 -85 27 -24 70 -22 92 5 23 29 23 41 -3
74 -25 31 -61 34 -89 6z"/>
</g>
</svg>
