<?xml version="1.0" standalone="no"?>
<!DOCTYPE svg PUBLIC "-//W3C//DTD SVG 20010904//EN"
 "http://www.w3.org/TR/2001/REC-SVG-20010904/DTD/svg10.dtd">
<svg version="1.0" xmlns="http://www.w3.org/2000/svg"
 width="500.000000pt" height="500.000000pt" viewBox="0 0 400.000000 350.000000"
 preserveAspectRatio="xMidYMid meet">

<g transform="translate(0.000000,500.000000) scale(0.100000,-0.100000)"
fill="#000000" stroke="none">
<path d="M3064 4386 c-10 -25 0 -51 20 -54 27 -6 48 25 35 49 -12 22 -47 25
-55 5z"/>
<path d="M1518 4342 l-188 -2 0 -55 0 -55 65 0 65 0 0 -225 0 -225 65 0 65 0
0 225 0 225 60 0 60 0 0 -225 0 -225 160 0 160 0 0 55 0 55 -95 0 -95 0 0 60
0 60 90 0 90 0 0 55 0 55 -90 0 -90 0 0 55 0 55 95 0 95 0 0 55 0 54 -162 3
c-90 2 -247 2 -350 0z"/>
<path d="M2040 4060 l0 -280 65 0 64 0 3 116 3 115 99 -115 99 -116 134 0 133
0 0 171 c0 93 4 168 8 165 4 -2 55 -79 112 -170 l105 -165 222 -1 222 0 3 116
3 115 99 -115 99 -116 90 0 89 0 -113 128 c-62 70 -121 137 -131 148 -19 22
-19 22 44 95 35 41 85 100 112 132 l48 57 -78 0 -79 0 -90 -110 -90 -109 -3
109 -3 110 -64 0 -65 0 0 -35 0 -35 -90 0 -90 0 0 35 0 35 -65 0 -65 0 -2
-172 -3 -173 -110 172 -110 173 -145 0 -145 0 -90 -110 -90 -109 -3 109 -3
110 -64 0 -65 0 0 -280z m468 -105 l-3 -124 -105 120 c-58 67 -104 125 -102
130 1 5 48 63 105 130 l102 120 3 -125 c1 -70 1 -182 0 -251z m530 269 c22 -6
22 -8 22 -199 0 -167 -2 -194 -16 -199 -44 -17 -44 -17 -44 199 0 113 3 205 8
205 4 0 17 -3 30 -6z m142 -203 l0 -209 -27 7 -28 7 -3 196 c-2 181 -1 197 15
201 44 11 43 16 43 -202z"/>
<path d="M1894 3436 c-10 -26 1 -51 22 -54 27 -4 47 21 39 48 -7 24 -53 28
-61 6z"/>
<path d="M2384 3436 c-10 -26 1 -51 22 -54 27 -4 47 21 39 48 -7 24 -53 28
-61 6z"/>
<path d="M2864 3436 c-10 -25 0 -51 20 -54 27 -6 48 25 35 49 -12 22 -47 25
-55 5z"/>
<path d="M1460 3109 l0 -281 143 4 c126 3 146 6 178 25 52 33 73 77 67 146 -5
64 -24 92 -78 114 -29 13 -32 16 -17 24 49 28 64 145 25 194 -34 44 -75 55
-203 55 l-115 0 0 -281z m202 164 c19 -17 23 -49 10 -70 -10 -16 -62 -35 -79
-29 -9 4 -13 24 -13 61 l0 55 32 0 c17 0 40 -7 50 -17z m38 -233 c23 -23 26
-58 6 -85 -9 -13 -30 -20 -70 -23 l-56 -4 0 66 0 66 50 0 c37 0 55 -5 70 -20z"/>
<path d="M2010 3355 l0 -35 -90 0 c-82 0 -90 -2 -90 -19 0 -13 9 -21 30 -26
l30 -7 -2 -196 -3 -196 -25 -6 c-14 -3 -26 -14 -28 -23 -3 -17 20 -18 365 -17
202 1 380 -1 395 -5 24 -6 26 -10 17 -27 -6 -11 -9 -21 -7 -22 2 -1 15 -7 31
-14 15 -6 27 -18 27 -26 0 -21 -37 -39 -66 -33 -18 3 -24 0 -24 -14 0 -31 83
-26 115 6 14 13 25 31 25 40 0 17 -30 50 -51 57 -22 7 6 34 42 42 17 3 46 21
65 40 30 30 34 41 34 84 0 67 -25 96 -119 139 -42 19 -84 42 -93 50 -18 16
-24 69 -10 89 22 33 86 43 156 23 31 -8 41 -8 47 3 24 38 -17 58 -120 58 -80
0 -125 -23 -147 -76 -33 -79 12 -150 123 -192 77 -29 103 -53 103 -97 0 -25
-7 -39 -27 -55 -25 -20 -37 -22 -103 -17 -41 2 -83 8 -92 12 -13 5 -18 3 -18
-9 0 -17 -17 -20 -44 -10 -14 5 -16 32 -16 199 l0 193 30 7 c21 5 30 13 30 26
0 17 -8 19 -90 19 -82 0 -90 -2 -90 -19 0 -13 9 -21 30 -26 l30 -7 -2 -196
c-3 -178 -5 -197 -20 -200 -15 -3 -18 4 -18 32 l0 36 -100 0 -100 0 0 225 0
225 -65 0 -65 0 0 -35z m0 -280 c0 -216 0 -216 -44 -199 -14 5 -16 32 -16 199
0 176 2 194 18 198 43 11 42 16 42 -198z"/>
<path d="M2999 3368 c0 -13 -10 -129 -22 -258 -18 -193 -25 -235 -37 -235 -13
0 -15 30 -18 197 l-2 196 30 7 c22 5 30 12 28 23 -3 14 -19 18 -91 20 -81 3
-87 1 -87 -17 0 -13 9 -21 30 -26 l30 -7 0 -194 0 -194 -30 -6 c-21 -5 -30
-12 -30 -25 0 -18 10 -19 139 -19 l138 0 6 58 c4 31 10 103 13 160 4 56 10
102 13 102 3 0 31 -71 61 -158 l55 -157 39 0 38 0 57 164 c64 186 63 186 76
-24 9 -152 5 -145 76 -145 l59 0 -1 43 c0 23 -10 148 -22 277 l-22 235 -70 3
-70 2 -59 -155 c-32 -85 -60 -155 -63 -155 -5 0 -13 19 -77 188 l-48 122 -69
0 c-65 0 -69 -1 -70 -22z"/>
<path d="M1270 2420 c0 -49 1 -50 30 -50 28 0 50 22 50 49 0 18 -39 51 -60 51
-17 0 -20 -7 -20 -50z m55 -5 c0 -23 -5 -31 -22 -33 -20 -3 -23 1 -23 33 0 32
3 36 23 33 17 -2 22 -10 22 -33z"/>
<path d="M2000 2420 l0 -50 33 1 c30 2 30 2 5 6 -34 5 -37 30 -5 36 l22 4 -22
8 c-28 9 -30 25 -3 25 11 0 20 5 20 10 0 6 -11 10 -25 10 -23 0 -25 -3 -25
-50z"/>
<path d="M2167 2463 c-11 -10 -8 -81 3 -88 6 -3 10 3 10 14 0 28 24 27 44 -1
l16 -23 -9 26 c-6 17 -6 30 1 37 8 8 8 15 -2 27 -13 15 -51 21 -63 8z m53 -28
c0 -8 -9 -15 -20 -15 -11 0 -20 7 -20 15 0 8 9 15 20 15 11 0 20 -7 20 -15z"/>
<path d="M2655 2425 c-9 -25 -14 -49 -11 -52 3 -4 6 -1 6 5 0 16 43 15 59 0
13 -13 -15 69 -29 85 -4 4 -15 -13 -25 -38z m29 0 c3 -9 0 -15 -9 -15 -9 0
-12 6 -9 15 4 8 7 15 9 15 2 0 5 -7 9 -15z"/>
<path d="M2827 2463 c-4 -3 -7 -27 -6 -52 0 -38 2 -42 9 -23 12 27 40 29 47 2
3 -11 10 -20 15 -20 5 0 6 5 2 11 -4 7 -7 26 -6 43 0 17 -5 34 -11 38 -15 10
-41 10 -50 1z m53 -28 c0 -9 -9 -15 -25 -15 -16 0 -25 6 -25 15 0 9 9 15 25
15 16 0 25 -6 25 -15z"/>
<path d="M3667 2463 c-11 -10 -8 -81 3 -88 6 -3 10 3 10 14 0 28 24 27 44 -1
l16 -23 -9 26 c-6 17 -6 30 1 37 8 8 8 15 -2 27 -13 15 -51 21 -63 8z m53 -28
c0 -8 -9 -15 -20 -15 -11 0 -20 7 -20 15 0 8 9 15 20 15 11 0 20 -7 20 -15z"/>
<path d="M1450 2434 c0 -35 17 -64 38 -64 28 0 42 21 40 60 l-1 35 -4 -32 c-8
-62 -53 -69 -53 -7 0 19 -4 34 -10 34 -5 0 -10 -12 -10 -26z"/>
<path d="M1642 2413 c1 -45 2 -46 5 -10 l4 39 34 -39 34 -38 -1 50 c-1 45 -1
47 -7 15 l-6 -35 -23 33 c-13 17 -28 32 -33 32 -5 0 -8 -21 -7 -47z"/>
<path d="M1831 2418 c-1 -48 -1 -48 32 -47 29 1 30 2 7 8 -20 5 -26 15 -31 46
l-6 40 -2 -47z"/>
<path d="M2470 2453 c0 -6 7 -16 15 -23 8 -7 15 -24 16 -39 1 -24 2 -23 9 6 4
18 13 40 20 48 7 9 8 15 2 15 -5 0 -13 -7 -16 -16 -6 -15 -8 -15 -26 1 -11 10
-20 13 -20 8z"/>
<path d="M3000 2421 c0 -22 5 -43 10 -46 6 -4 10 12 10 39 0 25 -4 46 -10 46
-5 0 -10 -18 -10 -39z"/>
<path d="M3132 2413 c1 -45 2 -46 5 -10 l4 39 34 -39 34 -38 -1 50 c-1 45 -1
47 -7 15 l-6 -35 -23 33 c-13 17 -28 32 -33 32 -5 0 -8 -21 -7 -47z"/>
<path d="M3321 2418 c-1 -48 -1 -48 32 -47 29 1 30 2 7 8 -20 5 -26 15 -31 46
l-6 40 -2 -47z"/>
<path d="M3496 2419 c-9 -23 -14 -44 -11 -47 3 -3 5 0 5 6 0 16 43 15 58 0 7
-7 12 -9 12 -5 0 15 -33 87 -40 87 -4 0 -15 -19 -24 -41z m34 0 c0 -5 -4 -9
-10 -9 -5 0 -10 7 -10 16 0 8 5 12 10 9 6 -3 10 -10 10 -16z"/>
<path d="M2137 2262 c-23 -25 -21 -58 3 -75 11 -8 17 -17 12 -22 -4 -4 3 -1
16 6 27 17 29 29 4 22 -24 -6 -45 21 -37 47 4 13 15 20 31 20 14 0 22 4 19 10
-10 15 -30 12 -48 -8z"/>
<path d="M2620 2230 c0 -49 1 -50 30 -50 28 0 50 22 50 49 0 18 -39 51 -60 51
-17 0 -20 -7 -20 -50z m55 -5 c0 -23 -5 -31 -22 -33 -20 -3 -23 1 -23 33 0 32
3 36 23 33 17 -2 22 -10 22 -33z"/>
<path d="M2937 2273 c-4 -3 -7 -27 -6 -52 0 -38 2 -42 9 -23 12 27 40 29 47 2
3 -11 10 -20 15 -20 5 0 6 5 2 11 -4 7 -7 26 -6 43 0 17 -5 34 -11 38 -15 10
-41 10 -50 1z m53 -28 c0 -9 -9 -15 -25 -15 -16 0 -25 6 -25 15 0 9 9 15 25
15 16 0 25 -6 25 -15z"/>
<path d="M2003 2225 c0 -27 2 -38 4 -22 2 15 2 37 0 50 -2 12 -4 0 -4 -28z"/>
<path d="M2303 2225 c0 -27 2 -38 4 -22 2 15 2 37 0 50 -2 12 -4 0 -4 -28z"/>
<path d="M2432 2225 c1 -40 2 -43 5 -15 l5 35 29 -35 28 -35 -1 50 c-1 35 -2
40 -5 18 l-4 -32 -29 32 -29 32 1 -50z"/>
<path d="M2813 2225 c0 -27 2 -38 4 -22 2 15 2 37 0 50 -2 12 -4 0 -4 -28z"/>
<path d="M2330 1966 c0 -7 10 -21 23 -30 l22 -17 -22 5 c-13 2 -23 0 -23 -5 0
-13 38 -11 46 2 4 7 -3 20 -16 29 -22 17 -23 18 -4 23 16 4 16 5 -3 6 -14 1
-23 -5 -23 -13z"/>
<path d="M2400 1951 c0 -17 5 -33 10 -36 6 -4 10 8 10 29 0 20 -4 36 -10 36
-5 0 -10 -13 -10 -29z"/>
<path d="M2440 1944 c0 -21 4 -33 10 -29 6 3 10 17 10 31 0 37 28 30 33 -8 4
-32 4 -32 5 5 2 35 0 37 -28 37 -28 0 -30 -3 -30 -36z"/>
<path d="M2534 1966 c-14 -37 22 -74 47 -49 6 6 1 9 -13 9 -33 -1 -31 36 2 45
l25 7 -28 1 c-16 1 -30 -5 -33 -13z"/>
<path d="M2614 1966 c-15 -38 22 -74 49 -47 7 7 4 8 -10 5 -12 -3 -24 -1 -27
5 -5 7 3 11 19 11 20 0 26 4 23 18 -4 22 -46 29 -54 8z m46 -6 c0 -5 -9 -10
-21 -10 -11 0 -17 5 -14 10 3 6 13 10 21 10 8 0 14 -4 14 -10z"/>
<path d="M2353 1873 c-7 -2 -13 -9 -13 -15 0 -6 6 -6 15 2 26 21 31 -17 6 -44
-29 -30 -27 -36 12 -35 23 1 26 3 10 6 l-23 4 22 29 c17 24 19 32 8 45 -13 16
-17 17 -37 8z"/>
<path d="M2432 1868 c-17 -17 -15 -63 4 -79 34 -28 68 26 44 70 -12 24 -30 27
-48 9z m41 -27 c2 -10 0 -26 -5 -35 -8 -14 -13 -15 -24 -5 -15 12 -19 41 -7
52 12 13 31 7 36 -12z"/>
<path d="M2525 1864 c-34 -34 3 -105 39 -75 19 16 21 62 4 79 -16 16 -23 15
-43 -4z m43 -29 c3 -26 -13 -50 -27 -41 -6 4 -11 21 -11 37 0 24 4 30 18 27 9
-2 18 -12 20 -23z"/>
<path d="M2615 1870 c-3 -5 3 -10 14 -10 27 0 27 -22 1 -45 -27 -25 -25 -35 8
-34 15 1 20 3 10 6 -15 4 -15 6 0 32 8 15 13 35 9 44 -7 19 -32 23 -42 7z"/>
</g>
</svg>
